<svg width="9" height="9" viewBox="0 0 9 9" fill="none" xmlns="http://www.w3.org/2000/svg">
<path id="Vector" d="M4.5 0.84375C5.4697 0.84375 6.39968 1.22896 7.08536 1.91464C7.77104 2.60032 8.15625 3.5303 8.15625 4.5C8.15625 5.4697 7.77104 6.39968 7.08536 7.08536C6.39968 7.77104 5.4697 8.15625 4.5 8.15625C3.5303 8.15625 2.60032 7.77104 1.91464 7.08536C1.22896 6.39968 0.84375 5.4697 0.84375 4.5C0.84375 3.5303 1.22896 2.60032 1.91464 1.91464C2.60032 1.22896 3.5303 0.84375 4.5 0.84375ZM4.5 9C5.69347 9 6.83807 8.52589 7.68198 7.68198C8.52589 6.83807 9 5.69347 9 4.5C9 3.30653 8.52589 2.16193 7.68198 1.31802C6.83807 0.474106 5.69347 0 4.5 0C3.30653 0 2.16193 0.474106 1.31802 1.31802C0.474106 2.16193 0 3.30653 0 4.5C0 5.69347 0.474106 6.83807 1.31802 7.68198C2.16193 8.52589 3.30653 9 4.5 9ZM3.07617 3.07617C2.91094 3.24141 2.91094 3.50859 3.07617 3.67207L3.90234 4.49824L3.07617 5.32441C2.91094 5.48965 2.91094 5.75684 3.07617 5.92031C3.24141 6.08379 3.50859 6.08555 3.67207 5.92031L4.49824 5.09414L5.32441 5.92031C5.48965 6.08555 5.75684 6.08555 5.92031 5.92031C6.08379 5.75508 6.08555 5.48789 5.92031 5.32441L5.09414 4.49824L5.92031 3.67207C6.08555 3.50684 6.08555 3.23965 5.92031 3.07617C5.75508 2.9127 5.48789 2.91094 5.32441 3.07617L4.49824 3.90234L3.67207 3.07617C3.50684 2.91094 3.23965 2.91094 3.07617 3.07617Z" fill="#F83319"/>
</svg>
