<svg width="268" height="464" viewBox="0 0 268 464" fill="none" xmlns="http://www.w3.org/2000/svg">
<path d="M0 15C0 6.71573 6.71573 0 15 0H253C261.284 0 268 6.71573 268 15V205H0V15Z" fill="white"/>
<path d="M0 220H268V449C268 457.284 261.284 464 253 464H15C6.71572 464 0 457.284 0 449V220Z" fill="white"/>
<rect x="230" y="240" width="14" height="52" rx="5" fill="#D9D9D9"/>
<rect x="24" y="41" width="84" height="145" fill="#DCF2FF"/>
<path d="M48.6214 43.8379L70.7069 27.5326L70.5126 31.3265L74.4803 31.0696L71.1345 34.458L76.605 35.4059L50.9446 54.4773L53.9789 47.8403L49.8651 50.1011L52.0184 45.3909L48.6214 43.8379Z" fill="#FFE9C8"/>
<path d="M80.26 98.38H57.76V52.96H64.48V67.84H73.48V52.96H80.26V98.38ZM94 98.74H87.22V52.96H94V98.74ZM64.48 91.84H73.48V75.16H64.48V91.84ZM115.575 62.56C115.575 61.28 115.815 60.08 116.295 58.96C116.815 57.84 117.495 56.86 118.335 56.02C119.215 55.14 120.235 54.46 121.395 53.98C122.555 53.46 123.795 53.2 125.115 53.2H143.475C144.795 53.2 146.035 53.46 147.195 53.98C148.355 54.46 149.355 55.14 150.195 56.02C151.075 56.86 151.755 57.84 152.235 58.96C152.755 60.08 153.015 61.28 153.015 62.56V65.56C153.015 66.84 152.755 68.06 152.235 69.22C151.755 70.34 151.075 71.32 150.195 72.16C149.355 73 148.355 73.68 147.195 74.2C146.035 74.68 144.795 74.92 143.475 74.92H125.115C123.795 74.92 122.555 74.68 121.395 74.2C120.235 73.68 119.215 73 118.335 72.16C117.495 71.32 116.815 70.34 116.295 69.22C115.815 68.06 115.575 66.84 115.575 65.56V62.56ZM154.935 81.16V87.16H137.655V98.38H130.935V87.16H113.655V81.16H154.935ZM122.355 64.06C122.355 65.26 122.695 66.3 123.375 67.18C124.095 68.06 125.135 68.5 126.495 68.5H142.095C143.455 68.5 144.475 68.06 145.155 67.18C145.875 66.3 146.235 65.26 146.235 64.06C146.235 62.9 145.875 61.88 145.155 61C144.475 60.12 143.455 59.68 142.095 59.68H126.495C125.135 59.68 124.095 60.12 123.375 61C122.695 61.88 122.355 62.9 122.355 64.06ZM190.189 74.08L198.169 98.26H190.729L186.409 84.52L181.429 98.26H173.749L187.549 59.86H174.109V53.2H195.349V59.86L190.189 74.08ZM204.829 98.38V52.96H211.189V68.5H216.109V74.8H211.189V98.38H204.829ZM85.66 156.28C86.82 156.28 87.92 156.52 88.96 157C90 157.44 90.9 158.04 91.66 158.8C92.46 159.56 93.08 160.46 93.52 161.5C93.96 162.54 94.18 163.66 94.18 164.86C94.18 166.02 93.96 167.12 93.52 168.16C93.08 169.2 92.46 170.12 91.66 170.92C90.9 171.68 90 172.28 88.96 172.72C87.92 173.16 86.82 173.38 85.66 173.38H66.04C64.88 173.38 63.78 173.16 62.74 172.72C61.7 172.28 60.78 171.68 59.98 170.92C59.22 170.12 58.62 169.2 58.18 168.16C57.74 167.12 57.52 166.02 57.52 164.86C57.52 163.66 57.74 162.54 58.18 161.5C58.62 160.46 59.22 159.56 59.98 158.8C60.78 158.04 61.7 157.44 62.74 157C63.78 156.52 64.88 156.28 66.04 156.28H85.66ZM87.46 142.96H83.68V152.2H77.14V127.96H83.68V136.6H87.46V127.96H94V152.2H87.46V142.96ZM54.4 128.2H61.24V145.48H73.54V151.72H54.4V128.2ZM66.04 162.76C65.48 162.76 65 162.96 64.6 163.36C64.2 163.76 64 164.26 64 164.86C64 165.42 64.2 165.9 64.6 166.3C65 166.7 65.48 166.9 66.04 166.9H85.66C86.22 166.9 86.7 166.7 87.1 166.3C87.54 165.9 87.76 165.42 87.76 164.86C87.76 164.26 87.54 163.76 87.1 163.36C86.7 162.96 86.22 162.76 85.66 162.76H66.04ZM144.435 156.58C145.595 156.58 146.695 156.8 147.735 157.24C148.775 157.68 149.675 158.28 150.435 159.04C151.235 159.76 151.855 160.64 152.295 161.68C152.735 162.72 152.955 163.82 152.955 164.98C152.955 166.18 152.735 167.3 152.295 168.34C151.855 169.34 151.235 170.22 150.435 170.98C149.675 171.74 148.775 172.32 147.735 172.72C146.695 173.16 145.595 173.38 144.435 173.38H124.815C123.655 173.38 122.555 173.16 121.515 172.72C120.475 172.32 119.555 171.74 118.755 170.98C117.995 170.22 117.395 169.34 116.955 168.34C116.515 167.3 116.295 166.18 116.295 164.98C116.295 163.82 116.515 162.72 116.955 161.68C117.395 160.64 117.995 159.76 118.755 159.04C119.555 158.28 120.475 157.68 121.515 157.24C122.555 156.8 123.655 156.58 124.815 156.58H144.435ZM138.495 128.2V134.86L132.075 139.84L138.735 145V153.04L126.975 143.86L114.855 153.28V145.24L128.475 134.86H114.855V128.2H138.495ZM144.735 152.98V127.96H151.935V136.66H156.855V143.2H151.935V152.98H144.735ZM124.815 162.88C124.255 162.88 123.775 163.1 123.375 163.54C122.975 163.94 122.775 164.42 122.775 164.98C122.775 165.58 122.975 166.08 123.375 166.48C123.775 166.88 124.255 167.08 124.815 167.08H144.435C144.955 167.08 145.415 166.88 145.815 166.48C146.255 166.08 146.475 165.58 146.475 164.98C146.475 164.42 146.255 163.94 145.815 163.54C145.415 163.1 144.955 162.88 144.435 162.88H124.815ZM185.149 167.08V147.88H192.169V167.08H201.169L203.689 134.92H175.849V128.44H210.889V134.92L208.369 167.08H214.189V173.38H172.909V167.08H185.149Z" fill="black"/>
</svg>
